<svg width="30" height="30" viewBox="0 0 30 30" fill="none" xmlns="http://www.w3.org/2000/svg">
<rect width="30" height="30" rx="15" fill="#54DC44"/>
<path fill-rule="evenodd" clip-rule="evenodd" d="M17.357 8.01371C17.3672 7.99917 17.3872 7.99563 17.4017 8.00581L18.3958 8.70186C18.4103 8.71204 18.4139 8.73208 18.4037 8.74662L17.0201 10.7225C17.6928 10.9374 18.151 11.1692 18.151 11.1692C18.151 11.1692 17.0309 13.0959 15.1311 13.0959C13.2313 13.0959 11.8813 11.3002 11.8813 11.3002C11.8813 11.3002 12.36 10.9947 13.0695 10.7327L11.552 8.92415C11.5406 8.91056 11.5423 8.89029 11.5559 8.87888L12.4855 8.09884C12.4991 8.08743 12.5194 8.0892 12.5308 8.1028L14.4523 10.3928C14.6168 10.3741 14.7844 10.3637 14.9536 10.3637C15.1967 10.3637 15.4395 10.3822 15.6766 10.4136L17.357 8.01371ZM17.7328 13.1872C18.2398 12.8251 19.007 11.88 19.007 11.88C19.007 11.88 20.9665 13.4329 20.9665 16.7255C20.9665 20.0181 17.5788 21.9998 17.5788 21.9998C17.5788 21.9998 15.9601 20.3651 15.5628 18.293C15.1655 16.2209 16.1506 13.92 16.1506 13.92C16.1506 13.92 17.2258 13.5492 17.7328 13.1872ZM12.2728 13.1872C11.7658 12.8251 10.9986 11.88 10.9986 11.88C10.9986 11.88 9.03906 13.4329 9.03906 16.7255C9.03906 20.0181 12.4268 21.9998 12.4268 21.9998C12.4268 21.9998 14.0455 20.3651 14.4428 18.293C14.8401 16.2209 13.855 13.92 13.855 13.92C13.855 13.92 12.7798 13.5492 12.2728 13.1872Z" fill="white"/>
</svg>
