<svg width="30" height="30" viewBox="0 0 30 30" fill="none" xmlns="http://www.w3.org/2000/svg">
<rect width="30" height="30" rx="15" fill="#040534"/>
<g clip-path="url(#clip0_135_7925)">
<path fill-rule="evenodd" clip-rule="evenodd" d="M14.2722 20.3826C14.5382 20.4233 14.8106 20.4444 15.088 20.4444C18.0411 20.4444 20.4352 18.0504 20.4352 15.0972C20.4352 12.144 18.0411 9.75 15.088 9.75C14.8898 9.75 14.6942 9.76078 14.5016 9.78178C15.9666 10.8916 16.9352 12.8142 16.9352 15C16.9352 17.298 15.8646 19.305 14.2722 20.3826ZM14.9907 22C18.8567 22 21.9907 18.866 21.9907 15C21.9907 11.134 18.8567 8 14.9907 8C11.1247 8 7.99072 11.134 7.99072 15C7.99072 18.866 11.1247 22 14.9907 22Z" fill="white"/>
</g>
<defs>
<clipPath id="clip0_135_7925">
<rect width="14" height="14" fill="white" transform="translate(8 8)"/>
</clipPath>
</defs>
</svg>
