<svg width="30" height="30" viewBox="0 0 30 30" fill="none" xmlns="http://www.w3.org/2000/svg">
<rect width="30" height="30" rx="15" fill="#FF48CC"/>
<g clip-path="url(#clip0_135_7848)">
<path fill-rule="evenodd" clip-rule="evenodd" d="M10.8089 19.101L13.0544 18.4499L14.9939 21.9961C14.9965 22.0007 15.0031 22.0007 15.0056 21.9961L16.9451 18.4499L19.1906 19.101C19.1957 19.1024 19.2003 19.0977 19.1988 19.0927L18.5476 16.8916L21.9961 15.0056C22.0007 15.0031 22.0007 14.9965 21.9961 14.994L18.5192 13.0924L19.1988 10.7952C19.2003 10.7902 19.1957 10.7855 19.1906 10.787L16.8924 11.4534L15.0056 8.00345C15.0031 7.99885 14.9965 7.99885 14.994 8.00345L13.1071 11.4534L10.8089 10.787C10.8039 10.7855 10.7992 10.7902 10.8007 10.7952L11.4803 13.0924L8.00345 14.994C7.99885 14.9965 7.99885 15.0031 8.00345 15.0056L11.4519 16.8916L10.8007 19.0927C10.7992 19.0977 10.8039 19.1024 10.8089 19.101ZM12.5514 15.024L14.1423 15.894L15.0123 17.4848C15.0148 17.4894 15.0214 17.4894 15.024 17.4848L15.894 15.894L17.4848 15.024C17.4894 15.0214 17.4894 15.0148 17.4848 15.0123L15.894 14.1423L15.024 12.5514C15.0214 12.5468 15.0148 12.5468 15.0123 12.5514L14.1423 14.1423L12.5514 15.0123C12.5468 15.0148 12.5468 15.0214 12.5514 15.024Z" fill="white"/>
</g>
<defs>
<clipPath id="clip0_135_7848">
<rect width="14" height="14" fill="white" transform="translate(8 8)"/>
</clipPath>
</defs>
</svg>
