<svg width="30" height="30" viewBox="0 0 30 30" fill="none" xmlns="http://www.w3.org/2000/svg">
<rect width="30" height="30" rx="15" fill="#F10A34"/>
<path fill-rule="evenodd" clip-rule="evenodd" d="M17.6321 18.8116C17.805 18.1791 17.4693 16.8788 17.4693 16.8788C17.4693 16.8788 17.2258 17.9381 16.8452 18.3296C16.5206 18.6635 16.1229 18.8951 15.5525 18.956C16.0189 18.7295 16.3396 18.2572 16.3396 17.7113C16.3396 16.9449 15.7076 16.3237 14.928 16.3237C14.1485 16.3237 13.5165 16.9449 13.5165 17.7113C13.5165 17.9206 13.5636 18.119 13.648 18.297C13.1605 17.9086 13.0838 17.2858 13.0838 17.2858C13.0838 17.2858 12.5393 19.5463 14.0396 20.6096C15.5398 21.673 18.4786 20.759 18.4786 20.759C18.4786 20.759 14.2729 23.7182 11.1565 20.4975C8.47187 17.723 10.4558 14.0704 10.4558 14.0704C10.4558 14.0704 10.3701 14.4092 10.3701 14.8026C10.3701 15.1959 10.5834 15.4952 10.5834 15.4952C10.5834 15.4952 11.2195 14.1543 11.7146 13.609C12.1832 13.0929 12.7705 12.6743 13.2779 12.3128C13.6684 12.0345 14.0115 11.79 14.2164 11.5608C15.3451 10.2988 14.653 8 14.653 8C14.653 8 15.9253 9.12164 16.2805 10.5703C16.4159 11.1224 16.3288 11.7507 16.251 12.3125C16.1245 13.2246 16.0223 13.9616 16.9358 13.9138C18.4118 13.8365 17.1292 11.5608 17.1292 11.5608C17.1292 11.5608 20.4775 13.3206 20.2273 16.3985C19.9771 19.4764 16.5675 20.1761 16.5675 20.1761C16.5675 20.1761 17.4591 19.444 17.6321 18.8116Z" fill="white"/>
</svg>
