<svg width="30" height="30" viewBox="0 0 30 30" fill="none" xmlns="http://www.w3.org/2000/svg">
<rect width="30" height="30" rx="15" fill="#8A8886"/>
<g clip-path="url(#clip0_135_7916)">
<path fill-rule="evenodd" clip-rule="evenodd" d="M18.0885 21.9515C16.8257 22.0162 15.38 22.0162 14.8887 21.9515C11.0562 21.4473 8 18.6453 8 14.8578C8 11.0703 11.134 8 15 8C18.866 8 22 11.0703 22 14.8578C22 16.6193 21.3221 18.2257 20.2079 19.4403C19.9053 19.7701 20.3205 20.0014 20.7422 20.2364C21.1559 20.467 21.576 20.7011 21.3318 21.0351C21.0628 21.4032 19.6045 21.8739 18.0885 21.9515ZM14.0156 14.0006C14.0156 14.5924 13.5259 15.0721 12.9219 15.0721C12.3178 15.0721 11.8281 14.5924 11.8281 14.0006C11.8281 13.6037 12.0484 13.2572 12.3757 13.072C12.3945 13.588 12.8188 14.0006 13.3394 14.0006H14.0156V14.0006ZM17.4056 13.072C17.3868 13.588 16.9625 14.0006 16.4419 14.0006H15.7656V14.0006C15.7656 14.5924 16.2553 15.0721 16.8594 15.0721C17.4634 15.0721 17.9531 14.5924 17.9531 14.0006C17.9531 13.6037 17.7329 13.2572 17.4056 13.072Z" fill="white"/>
</g>
<defs>
<clipPath id="clip0_135_7916">
<rect width="14" height="14" fill="white" transform="translate(8 8)"/>
</clipPath>
</defs>
</svg>
