<svg width="30" height="30" viewBox="0 0 30 30" fill="none" xmlns="http://www.w3.org/2000/svg">
<rect width="30" height="30" rx="15" fill="#673E2C"/>
<g clip-path="url(#clip0_135_7839)">
<path fill-rule="evenodd" clip-rule="evenodd" d="M11.0834 20.0245C11.0796 20.0245 11.0769 20.0208 11.0782 20.0172L14.6524 9.91773C14.6532 9.91553 14.6553 9.91406 14.6576 9.91406H18.4732C18.4756 9.91406 18.4777 9.91554 18.4784 9.91775L21.9996 20.0172C22.0009 20.0208 21.9982 20.0245 21.9944 20.0245H11.1908H11.0834ZM8.0055 20.064C8.00167 20.064 7.99901 20.0602 8.00035 20.0566L10.662 12.9507C10.6628 12.9486 10.6648 12.9472 10.6671 12.9472H12.9798C12.9836 12.9472 12.9863 12.951 12.985 12.9546L10.4112 20.0604C10.4104 20.0626 10.4084 20.064 10.4061 20.064H8.0055Z" fill="white"/>
</g>
<defs>
<clipPath id="clip0_135_7839">
<rect width="14" height="14" fill="white" transform="translate(8 8)"/>
</clipPath>
</defs>
</svg>
