<svg width="30" height="30" viewBox="0 0 30 30" fill="none" xmlns="http://www.w3.org/2000/svg">
<rect width="30" height="30" rx="15" fill="#6114BC"/>
<g clip-path="url(#clip0_135_7875)">
<path fill-rule="evenodd" clip-rule="evenodd" d="M20.4667 19.6261C20.4667 19.6261 18.7014 21.042 15.1885 20.4561C12.5233 20.0115 11.1018 17.0736 11.1018 15.4943C11.1018 11.7502 13.873 10.8981 15.7465 10.8981C17.62 10.8981 18.8422 12.7247 18.8422 14.1389C18.8422 15.5531 17.8419 16.7901 16.2853 16.7901C14.7287 16.7901 14.2677 15.6973 14.2677 14.6926C14.2677 13.6879 15.0806 13.334 15.8219 13.334C16.5632 13.334 16.817 13.9669 16.817 14.5108C16.817 15.0548 16.395 15.2496 16.043 15.2496C15.6909 15.2496 15.6561 15.072 15.5214 14.8853C15.3867 14.6987 15.6932 13.9923 15.1885 13.9923C14.6837 13.9923 14.5896 14.8044 14.5896 14.8044C14.5896 14.8044 14.7736 16.3721 16.2853 16.3451C17.797 16.318 18.5142 15.1493 18.3057 13.9923C18.0973 12.8352 16.9744 11.6057 15.0036 11.8541C13.0329 12.1026 12.2282 14.0939 12.5829 16.2219C12.9376 18.3499 15.4869 19.5829 17.4913 19.1393C19.4958 18.6957 21.4922 17.2445 21.4922 13.5654C21.4922 9.88614 18.3057 7.6746 14.5062 8.03908C10.7066 8.40355 8.34806 11.7254 8.49903 15.7166C8.65 19.7078 12.4372 21.8816 15.6397 21.9936C18.8422 22.1057 20.8054 20.2518 20.8054 20.2518C20.8054 20.2518 21.2469 19.8581 21.0738 19.5507C20.9007 19.2432 20.4667 19.6261 20.4667 19.6261Z" fill="white"/>
</g>
<defs>
<clipPath id="clip0_135_7875">
<rect width="14" height="14" fill="white" transform="translate(8 8)"/>
</clipPath>
</defs>
</svg>
