<svg width="30" height="30" viewBox="0 0 30 30" fill="none" xmlns="http://www.w3.org/2000/svg">
<rect width="30" height="30" rx="15" fill="#265DFC"/>
<path fill-rule="evenodd" clip-rule="evenodd" d="M19.5438 17.475C19.5438 19.9737 17.5105 21.9994 15.0024 21.9994C12.4942 21.9994 10.4609 19.9737 10.4609 17.475C10.4609 15.0448 14.7567 8.37045 14.9923 8.00623C14.9977 7.99792 15.0071 7.99792 15.0124 8.00623C15.248 8.37045 19.5438 15.0448 19.5438 17.475ZM14.2453 20.5489C11.9408 20.0446 12.3351 17.4918 12.3351 17.4918C12.3351 17.4918 12.9644 19.0329 14.4915 19.5321C16.0186 20.0312 17.8641 19.2991 17.8641 19.2991C17.8641 19.2991 16.5498 21.0531 14.2453 20.5489Z" fill="white"/>
</svg>
