<svg width="30" height="30" viewBox="0 0 30 30" fill="none" xmlns="http://www.w3.org/2000/svg">
<rect width="30" height="30" rx="15" fill="#F8A801"/>
<path fill-rule="evenodd" clip-rule="evenodd" d="M12.1715 8.01596C12.1688 8.00815 12.1746 8 12.1829 8H17.1001C17.1053 8 17.11 8.00343 17.1116 8.00847L19.3701 15.3055C19.3725 15.3132 19.3667 15.321 19.3586 15.321H16.085C16.081 15.321 16.0782 15.3248 16.0793 15.3287L17.9567 21.9378C17.9604 21.9506 17.9436 21.959 17.9356 21.9483L10.6394 12.2456C10.6334 12.2377 10.6391 12.2263 10.649 12.2263H13.62C13.6242 12.2263 13.6271 12.2223 13.6257 12.2183L12.1715 8.01596Z" fill="white"/>
</svg>
