<svg width="30" height="30" viewBox="0 0 30 30" fill="none" xmlns="http://www.w3.org/2000/svg">
<rect width="30" height="30" rx="15" fill="#0F0905"/>
<g clip-path="url(#clip0_135_7866)">
<path fill-rule="evenodd" clip-rule="evenodd" d="M10.4126 9.1639C10.5821 8.49496 11.1881 8 11.9097 8C12.451 8 12.9272 8.27849 13.2029 8.7H13.6545C13.935 8.41211 14.3269 8.23333 14.7606 8.23333C15.3965 8.23333 15.9426 8.61765 16.1793 9.16667H16.5573C16.7942 9.01879 17.0741 8.93333 17.3739 8.93333C18.0098 8.93333 18.5559 9.31765 18.7926 9.86667H19.8206C19.8294 9.86667 19.8376 9.86903 19.8447 9.87316C19.8917 9.86886 19.9392 9.86667 19.9873 9.86667C20.8401 9.86667 21.5315 10.558 21.5315 11.4109V16.0414L21.5315 16.05L21.5315 16.0586V16.1253C21.5315 16.1535 21.5307 16.1817 21.5292 16.2097C21.4363 19.4219 18.5478 22 14.9982 22C11.3899 22 8.46484 19.3361 8.46484 16.05C8.46484 14.4638 9.14638 13.0226 10.2573 11.956C10.2546 13.5023 10.2807 15.101 10.4011 15.0736C10.7235 15.0001 10.4716 10.2105 10.4126 9.1639Z" fill="white"/>
</g>
<defs>
<clipPath id="clip0_135_7866">
<rect width="14" height="14" fill="white" transform="translate(8 8)"/>
</clipPath>
</defs>
</svg>
