<svg width="30" height="30" viewBox="0 0 30 30" fill="none" xmlns="http://www.w3.org/2000/svg">
<rect width="30" height="30" rx="15" fill="#9EC4DD"/>
<g clip-path="url(#clip0_135_7803)">
<path fill-rule="evenodd" clip-rule="evenodd" d="M12.8867 21.063C14.9375 21.063 16.6933 19.9232 17.4182 18.3074C17.427 18.2877 14.508 19.066 14.6011 18.7909C14.6426 18.668 16.432 18.0143 17.7357 17.2519C18.485 16.8136 18.83 15.8859 18.83 15.8859C18.83 15.8859 17.5677 16.4988 16.9295 16.6543C15.6435 16.9677 14.5114 16.9339 14.5114 16.9013C14.5114 16.8307 16.3911 16.4735 19.0038 14.8814C20.2327 14.1326 20.5665 12.8427 20.5665 12.8427C20.5665 12.8427 19.2154 13.6474 18.3986 13.9131C16.4617 14.5432 14.6942 14.7331 14.6942 14.6478C14.6942 14.4653 16.2497 14.0376 17.8989 13.2384C18.7564 12.8229 19.499 12.2801 20.3596 11.6764C21.7677 10.6888 22 8.92969 22 8.92969C22 8.92969 20.6111 9.82547 19.9334 10.123C17.1367 11.3505 14.6672 11.9943 12.8867 12.1337C10.1989 12.3442 8 14.2195 8 16.6543C8 19.0892 10.1878 21.063 12.8867 21.063Z" fill="white"/>
</g>
<defs>
<clipPath id="clip0_135_7803">
<rect width="14" height="14" fill="white" transform="translate(8 8)"/>
</clipPath>
</defs>
</svg>
