<svg width="30" height="30" viewBox="0 0 30 30" fill="none" xmlns="http://www.w3.org/2000/svg">
<rect width="30" height="30" rx="15" fill="#1B932C"/>
<g clip-path="url(#clip0_135_7943)">
<path fill-rule="evenodd" clip-rule="evenodd" d="M10.6637 20.0491C10.6156 20.0039 10.5681 19.9578 10.5211 19.9108C8.04146 17.4312 8.04146 13.4108 10.5211 10.9312C13.0008 8.45153 20.9019 8.28564 20.9019 8.28564C20.9019 8.28564 21.9804 17.4312 19.5008 19.9108C17.2985 22.1131 13.881 22.3594 11.4069 20.6499L13.4004 18.2035L16.5874 17.5154L13.9859 17.2553L15.6392 15.572L17.5211 15.1597L16.033 14.719L17.5211 12.0345L15.4044 14.4087L14.587 13.2553L14.8747 15.1597L13.4004 16.8218L12.717 14.719V17.5154L10.6637 20.0491Z" fill="white"/>
</g>
<defs>
<clipPath id="clip0_135_7943">
<rect width="14" height="14" fill="white" transform="translate(8 8)"/>
</clipPath>
</defs>
</svg>
