<svg width="30" height="30" viewBox="0 0 30 30" fill="none" xmlns="http://www.w3.org/2000/svg">
<rect width="30" height="30" rx="15" fill="#8FC3E9"/>
<path fill-rule="evenodd" clip-rule="evenodd" d="M18.5084 9.06738L18.5514 12.8504L15.2519 14.4343L15.2112 10.8625L18.5084 9.06738Z" fill="white"/>
<path fill-rule="evenodd" clip-rule="evenodd" d="M21.8159 15.0284L18.5495 16.8967L15.2812 15.0254L18.5478 13.3096L21.8159 15.0284Z" fill="white"/>
<path fill-rule="evenodd" clip-rule="evenodd" d="M14.7004 15.0284L11.4341 16.8967L8.16577 15.0254L11.4324 13.3096L14.7004 15.0284Z" fill="white"/>
<path fill-rule="evenodd" clip-rule="evenodd" d="M11.3972 9.05225L14.7875 10.7313L14.7008 14.3903L11.4998 12.805L11.3972 9.05225Z" fill="white"/>
<path fill-rule="evenodd" clip-rule="evenodd" d="M18.6007 20.948L15.2104 19.2689L15.2971 15.6099L18.4982 17.1952L18.6007 20.948Z" fill="white"/>
<path fill-rule="evenodd" clip-rule="evenodd" d="M11.5143 20.9822L11.4712 17.1992L14.7708 15.6152L14.8115 19.1871L11.5143 20.9822Z" fill="white"/>
</svg>
