<svg width="32" height="32" viewBox="0 0 32 32" fill="none" xmlns="http://www.w3.org/2000/svg">
<path d="M16.0052 0C9.32537 0 7.37177 0.00689289 6.99203 0.0384033C5.62121 0.152382 4.7682 0.368277 3.8389 0.831086C3.12272 1.18681 2.55791 1.59915 2.00047 2.17717C0.985278 3.23129 0.370009 4.52814 0.147282 6.06968C0.0389944 6.81805 0.00749261 6.97068 0.00109381 10.7933C-0.00136726 12.0675 0.00109381 13.7444 0.00109381 15.9937C0.00109381 22.67 0.00847704 24.6221 0.040471 25.0013C0.151219 26.3355 0.360411 27.175 0.803404 28.0932C1.65001 29.8509 3.26694 31.1704 5.17181 31.6627C5.83138 31.8326 6.55986 31.9261 7.49507 31.9705C7.8913 31.9877 11.9299 32 15.971 32C20.0121 32 24.0532 31.9951 24.4396 31.9754C25.5224 31.9244 26.1513 31.84 26.8465 31.6603C27.791 31.418 28.6713 30.9724 29.4258 30.3546C30.1803 29.7368 30.7909 28.9617 31.2149 28.0834C31.6493 27.1873 31.8696 26.3158 31.9692 25.0512C31.9909 24.7755 32 20.3796 32 15.9895C32 11.5988 31.9902 7.21095 31.9685 6.93523C31.8676 5.6502 31.6473 4.78613 31.1989 3.87282C30.831 3.12519 30.4224 2.56686 29.8293 1.99598C28.7711 0.984699 27.4765 0.369262 25.9337 0.14672C25.1863 0.0386494 25.0374 0.00664672 21.2129 0H16.0052Z" fill="url(#paint0_radial_135_11908)"/>
<path d="M16.0052 0C9.32537 0 7.37177 0.00689289 6.99203 0.0384033C5.62121 0.152382 4.7682 0.368277 3.8389 0.831086C3.12272 1.18681 2.55791 1.59915 2.00047 2.17717C0.985278 3.23129 0.370009 4.52814 0.147282 6.06968C0.0389944 6.81805 0.00749261 6.97068 0.00109381 10.7933C-0.00136726 12.0675 0.00109381 13.7444 0.00109381 15.9937C0.00109381 22.67 0.00847704 24.6221 0.040471 25.0013C0.151219 26.3355 0.360411 27.175 0.803404 28.0932C1.65001 29.8509 3.26694 31.1704 5.17181 31.6627C5.83138 31.8326 6.55986 31.9261 7.49507 31.9705C7.8913 31.9877 11.9299 32 15.971 32C20.0121 32 24.0532 31.9951 24.4396 31.9754C25.5224 31.9244 26.1513 31.84 26.8465 31.6603C27.791 31.418 28.6713 30.9724 29.4258 30.3546C30.1803 29.7368 30.7909 28.9617 31.2149 28.0834C31.6493 27.1873 31.8696 26.3158 31.9692 25.0512C31.9909 24.7755 32 20.3796 32 15.9895C32 11.5988 31.9902 7.21095 31.9685 6.93523C31.8676 5.6502 31.6473 4.78613 31.1989 3.87282C30.831 3.12519 30.4224 2.56686 29.8293 1.99598C28.7711 0.984699 27.4765 0.369262 25.9337 0.14672C25.1863 0.0386494 25.0374 0.00664672 21.2129 0H16.0052Z" fill="url(#paint1_radial_135_11908)"/>
<path d="M15.998 4.185C12.7897 4.185 12.3871 4.19903 11.127 4.25639C9.86941 4.31399 9.01099 4.51315 8.25987 4.80536C7.48291 5.10717 6.82383 5.51089 6.16722 6.16793C5.51011 6.82473 5.10649 7.48398 4.80378 8.26091C4.51091 9.01248 4.31157 9.87139 4.25496 11.1288C4.19885 12.3893 4.18408 12.7922 4.18408 16.0014C4.18408 19.2105 4.19836 19.612 4.25545 20.8724C4.31329 22.1304 4.51239 22.989 4.80427 23.7404C5.10625 24.5175 5.50986 25.1768 6.16672 25.8336C6.82309 26.4909 7.48217 26.8956 8.25864 27.1974C9.01025 27.4896 9.86892 27.6888 11.1263 27.7464C12.3864 27.8037 12.7887 27.8178 15.9968 27.8178C19.2053 27.8178 19.6067 27.8037 20.8667 27.7464C22.1243 27.6888 22.9837 27.4896 23.7354 27.1974C24.5121 26.8956 25.1702 26.4909 25.8265 25.8336C26.4836 25.1768 26.8873 24.5175 27.19 23.7406C27.4804 22.9891 27.6797 22.1301 27.7388 20.8727C27.7954 19.6123 27.8102 19.2105 27.8102 16.0014C27.8102 12.7922 27.7954 12.3895 27.7388 11.1291C27.6797 9.87114 27.4804 9.01248 27.19 8.26116C26.8873 7.48398 26.4836 6.82473 25.8265 6.16793C25.1694 5.51065 24.5123 5.10692 23.7346 4.80536C22.9815 4.51315 22.1226 4.31399 20.865 4.25639C19.6049 4.19903 19.2038 4.185 15.9945 4.185H15.998ZM14.9382 6.31441C15.2528 6.31392 15.6037 6.31441 15.998 6.31441C19.1521 6.31441 19.5259 6.32573 20.7715 6.38235C21.9233 6.43503 22.5484 6.62754 22.9648 6.78928C23.5161 7.00345 23.9091 7.25947 24.3223 7.67305C24.7358 8.08662 24.9917 8.4805 25.2063 9.03193C25.368 9.44797 25.5607 10.0732 25.6132 11.2253C25.6698 12.471 25.6821 12.8452 25.6821 15.9987C25.6821 19.1522 25.6698 19.5264 25.6132 20.772C25.5605 21.9241 25.368 22.5494 25.2063 22.9654C24.9922 23.5168 24.7358 23.9095 24.3223 24.3228C23.9089 24.7364 23.5163 24.9924 22.9648 25.2066C22.5489 25.3691 21.9233 25.5611 20.7715 25.6138C19.5262 25.6704 19.1521 25.6827 15.998 25.6827C12.8436 25.6827 12.4698 25.6704 11.2245 25.6138C10.0727 25.5606 9.44758 25.3681 9.03092 25.2063C8.47964 24.9922 8.08587 24.7362 7.67241 24.3226C7.25895 23.909 7.003 23.5161 6.78839 22.9644C6.6267 22.5484 6.434 21.9231 6.38158 20.771C6.32497 19.5254 6.31365 19.1512 6.31365 15.9957C6.31365 12.8403 6.32497 12.468 6.38158 11.2224C6.43424 10.0703 6.6267 9.44501 6.78839 9.02848C7.00251 8.47705 7.25895 8.08317 7.67241 7.6696C8.08587 7.25603 8.47964 7.00001 9.03092 6.78534C9.44734 6.62287 10.0727 6.43085 11.2245 6.37792C12.3142 6.32869 12.7366 6.31392 14.9382 6.31145V6.31441ZM22.3038 8.27642C22.0234 8.27642 21.7493 8.3596 21.5161 8.51543C21.283 8.67126 21.1013 8.89274 20.994 9.15187C20.8868 9.411 20.8587 9.69613 20.9134 9.9712C20.9682 10.2463 21.1032 10.4989 21.3015 10.6972C21.4998 10.8955 21.7525 11.0305 22.0275 11.0852C22.3025 11.1398 22.5876 11.1117 22.8466 11.0043C23.1056 10.8969 23.327 10.7151 23.4827 10.4818C23.6384 10.2486 23.7214 9.97436 23.7213 9.69389C23.7213 8.91106 23.0864 8.27593 22.3038 8.27593V8.27642ZM15.998 9.93318C12.6477 9.93318 9.93143 12.6502 9.93143 16.0014C9.93143 19.3526 12.6477 22.0684 15.998 22.0684C19.3482 22.0684 22.0638 19.3526 22.0638 16.0014C22.0638 12.6502 19.3482 9.93318 15.998 9.93318ZM15.998 12.0626C18.1726 12.0626 19.9357 13.8259 19.9357 16.0014C19.9357 18.1766 18.1726 19.9402 15.998 19.9402C13.8231 19.9402 12.0603 18.1766 12.0603 16.0014C12.0603 13.8259 13.8231 12.0626 15.998 12.0626Z" fill="white"/>
<defs>
<radialGradient id="paint0_radial_135_11908" cx="0" cy="0" r="1" gradientUnits="userSpaceOnUse" gradientTransform="translate(8.50004 34.4647) rotate(-90) scale(31.7144 29.4969)">
<stop stop-color="#FFDD55"/>
<stop offset="0.1" stop-color="#FFDD55"/>
<stop offset="0.5" stop-color="#FF543E"/>
<stop offset="1" stop-color="#C837AB"/>
</radialGradient>
<radialGradient id="paint1_radial_135_11908" cx="0" cy="0" r="1" gradientUnits="userSpaceOnUse" gradientTransform="translate(-5.36017 2.30523) rotate(78.6806) scale(14.1765 58.4359)">
<stop stop-color="#3771C8"/>
<stop offset="0.128" stop-color="#3771C8"/>
<stop offset="1" stop-color="#6600FF" stop-opacity="0"/>
</radialGradient>
</defs>
</svg>
