<svg width="32" height="32" viewBox="0 0 32 32" fill="none" xmlns="http://www.w3.org/2000/svg">
<path d="M27.2655 27.2662H22.5241V19.8407C22.5241 18.07 22.4925 15.7906 20.0581 15.7906C17.5886 15.7906 17.2108 17.7198 17.2108 19.7118V27.2657H12.4694V11.9959H17.0211V14.0826H17.0848C17.5404 13.3038 18.1986 12.663 18.9895 12.2287C19.7803 11.7943 20.6742 11.5826 21.5758 11.616C26.3814 11.616 27.2675 14.7771 27.2675 18.8894L27.2655 27.2662ZM7.11951 9.90859C6.57531 9.90868 6.04331 9.7474 5.59077 9.44514C5.13824 9.14287 4.7855 8.71319 4.57716 8.21044C4.36881 7.70769 4.31422 7.15445 4.42029 6.62068C4.52637 6.0869 4.78833 5.59657 5.17306 5.21168C5.5578 4.8268 6.04802 4.56464 6.58174 4.45838C7.11545 4.35211 7.6687 4.4065 8.17151 4.61467C8.67432 4.82284 9.1041 5.17545 9.40652 5.62789C9.70894 6.08033 9.87041 6.61229 9.87051 7.1565C9.87057 7.51785 9.79947 7.87567 9.66126 8.20953C9.52304 8.54339 9.32042 8.84676 9.06497 9.10232C8.80951 9.35787 8.50622 9.5606 8.17242 9.69894C7.83862 9.83728 7.48084 9.90852 7.11951 9.90859ZM9.49021 27.2662H4.74386V11.9959H9.49021V27.2662ZM29.6293 0.00217941H2.36132C1.74241 -0.00480518 1.14604 0.234217 0.703273 0.666722C0.260503 1.09923 0.00755341 1.68983 0 2.30875V29.6908C0.00729488 30.31 0.26009 30.901 0.702845 31.334C1.1456 31.7669 1.7421 32.0064 2.36132 31.9998H29.6293C30.2497 32.0076 30.8479 31.7688 31.2924 31.3358C31.7369 30.9029 31.9914 30.3112 32 29.6908V2.30678C31.9912 1.68663 31.7365 1.09535 31.292 0.662859C30.8474 0.230364 30.2494 -0.00797524 29.6293 0.000203762" fill="#0A66C2"/>
</svg>
