<svg width="31" height="32" viewBox="0 0 31 32" fill="none" xmlns="http://www.w3.org/2000/svg">
<path fill-rule="evenodd" clip-rule="evenodd" d="M5.2662 5.66367C6.25638 6.46815 6.62783 6.40677 8.48724 6.2827L26.0165 5.23015C26.3883 5.23015 26.0791 4.85926 25.9551 4.79763L23.0439 2.69303C22.4861 2.25995 21.7429 1.76398 20.3185 1.88805L3.34492 3.12605C2.72589 3.18743 2.60226 3.49694 2.84877 3.74502L5.2662 5.66367ZM6.31863 9.74887V28.1927C6.31863 29.1839 6.81397 29.5548 7.92884 29.4935L27.1935 28.3787C28.3089 28.3174 28.4332 27.6356 28.4332 26.8304V8.51031C28.4332 7.7064 28.1239 7.27288 27.4411 7.33476L7.30937 8.51031C6.56639 8.57275 6.31863 8.9444 6.31863 9.74887ZM25.3367 10.7382C25.4602 11.2958 25.3367 11.8529 24.778 11.9156L23.8498 12.1005V25.717C23.0439 26.1501 22.3007 26.3977 21.6815 26.3977C20.69 26.3977 20.4417 26.088 19.699 25.1602L13.6274 15.6286V24.8507L15.5487 25.2842C15.5487 25.2842 15.5487 26.3977 13.9986 26.3977L9.72543 26.6456C9.6013 26.3977 9.72543 25.7793 10.1589 25.6555L11.274 25.3464V13.153L9.72574 13.029C9.60155 12.4714 9.91081 11.6674 10.7787 11.605L15.3628 11.296L21.6815 20.9517V12.41L20.0704 12.2251C19.9468 11.5435 20.4417 11.0485 21.0612 10.9871L25.3367 10.7382ZM1.91978 1.45503L19.5751 0.154841C21.7432 -0.0311057 22.301 0.0934645 23.6637 1.08332L29.2995 5.04446C30.2294 5.72561 30.5394 5.91106 30.5394 6.6536V28.3787C30.5394 29.7403 30.0433 30.5455 28.3092 30.6687L7.80615 31.9068C6.50439 31.9689 5.88486 31.7834 5.20314 30.9163L1.05287 25.5316C0.309265 24.5403 0 23.7988 0 22.9313V3.62051C0 2.50708 0.496151 1.57829 1.91978 1.45503Z" fill="black"/>
</svg>
