<svg width="30" height="30" viewBox="0 0 30 30" fill="none" xmlns="http://www.w3.org/2000/svg">
<rect width="30" height="30" rx="15" fill="#8849B0"/>
<g clip-path="url(#clip0_135_7952)">
<path fill-rule="evenodd" clip-rule="evenodd" d="M19.6982 18.7584C21.112 17.628 22 15.9947 22 14.1783C22 10.7661 18.866 8 15 8C11.134 8 8 10.7661 8 14.1783C8 15.9291 8.82506 17.5098 10.1507 18.634C10.0704 18.9114 10.0263 19.2132 10.0263 19.5287C10.0263 20.8935 10.8511 22 11.8684 22C12.5295 22 13.1092 21.5328 13.4342 20.8312C13.7592 21.5328 14.3389 22 15 22C15.6026 22 16.1376 21.6118 16.4737 21.0117C16.8098 21.6118 17.3448 22 17.9474 22C18.9647 22 19.7895 20.8935 19.7895 19.5287C19.7895 19.2597 19.7574 19.0008 19.6982 18.7584ZM19.0526 14.3008C19.0526 16.0332 17.197 17.4375 14.9079 17.4375C12.6188 17.4375 10.7632 16.0332 10.7632 14.3008C10.7632 12.5685 12.6188 11.1642 14.9079 11.1642C17.197 11.1642 19.0526 12.5685 19.0526 14.3008Z" fill="white"/>
</g>
<defs>
<clipPath id="clip0_135_7952">
<rect width="14" height="14" fill="white" transform="translate(8 8)"/>
</clipPath>
</defs>
</svg>
