<svg width="183" height="182" viewBox="0 0 183 182" fill="none" xmlns="http://www.w3.org/2000/svg">
<mask id="path-1-inside-1_132_5297" fill="white">
<path fill-rule="evenodd" clip-rule="evenodd" d="M182.265 91.186C182.265 141.341 141.547 182 91.3186 182C41.0902 182 0.37207 141.341 0.37207 91.186C0.37207 89.9527 0.396691 88.7252 0.445467 87.5038C1.10816 93.5044 6.19519 98.1718 12.3724 98.1718H56.0083C59.5656 114.171 73.5865 126.115 90.341 126.115C107.096 126.115 121.116 114.171 124.674 98.1718H170.265C176.441 98.1718 181.527 93.5064 182.192 87.5077C182.241 88.7278 182.265 89.954 182.265 91.186ZM124.674 82.2045H181.826C177.309 36.2654 138.512 0.37207 91.3186 0.37207C44.1255 0.37207 5.3279 36.2654 0.811249 82.2045H56.0084C59.566 66.2055 73.5868 54.2621 90.341 54.2621C107.095 54.2621 121.116 66.2055 124.674 82.2045Z"/>
</mask>
<path fill-rule="evenodd" clip-rule="evenodd" d="M182.265 91.186C182.265 141.341 141.547 182 91.3186 182C41.0902 182 0.37207 141.341 0.37207 91.186C0.37207 89.9527 0.396691 88.7252 0.445467 87.5038C1.10816 93.5044 6.19519 98.1718 12.3724 98.1718H56.0083C59.5656 114.171 73.5865 126.115 90.341 126.115C107.096 126.115 121.116 114.171 124.674 98.1718H170.265C176.441 98.1718 181.527 93.5064 182.192 87.5077C182.241 88.7278 182.265 89.954 182.265 91.186ZM124.674 82.2045H181.826C177.309 36.2654 138.512 0.37207 91.3186 0.37207C44.1255 0.37207 5.3279 36.2654 0.811249 82.2045H56.0084C59.566 66.2055 73.5868 54.2621 90.341 54.2621C107.095 54.2621 121.116 66.2055 124.674 82.2045Z" fill="black" fill-opacity="0.15"/>
<path d="M0.445467 87.5038L0.942446 87.4489L-0.0541346 87.4839L0.445467 87.5038ZM56.0083 98.1718L56.4963 98.0633L56.4093 97.6718H56.0083V98.1718ZM124.674 98.1718V97.6718H124.273L124.186 98.0633L124.674 98.1718ZM182.192 87.5077L182.691 87.4878L181.695 87.4527L182.192 87.5077ZM181.826 82.2045V82.7045H182.377L182.324 82.1556L181.826 82.2045ZM124.674 82.2045L124.186 82.313L124.273 82.7045H124.674V82.2045ZM0.811249 82.2045L0.313648 82.1556L0.259679 82.7045H0.811249V82.2045ZM56.0084 82.2045V82.7045H56.4094L56.4965 82.313L56.0084 82.2045ZM91.3186 182.5C141.822 182.5 182.765 141.618 182.765 91.186H181.765C181.765 141.064 141.271 181.5 91.3186 181.5V182.5ZM-0.12793 91.186C-0.12793 141.618 40.8148 182.5 91.3186 182.5V181.5C41.3657 181.5 0.87207 141.064 0.87207 91.186H-0.12793ZM-0.0541346 87.4839C-0.103177 88.7119 -0.12793 89.9461 -0.12793 91.186H0.87207C0.87207 89.9594 0.896558 88.7385 0.945069 87.5238L-0.0541346 87.4839ZM12.3724 97.6718C6.45291 97.6718 1.57747 93.1989 0.942446 87.4489L-0.0515112 87.5587C0.638854 93.8098 5.93747 98.6718 12.3724 98.6718V97.6718ZM56.0083 97.6718H12.3724V98.6718H56.0083V97.6718ZM90.341 125.615C73.8325 125.615 60.0054 113.845 56.4963 98.0633L55.5202 98.2803C59.1259 114.497 73.3406 126.615 90.341 126.615V125.615ZM124.186 98.0633C120.677 113.845 106.85 125.615 90.341 125.615V126.615C107.342 126.615 121.556 114.497 125.162 98.2803L124.186 98.0633ZM170.265 97.6718H124.674V98.6718H170.265V97.6718ZM181.695 87.4527C181.058 93.2009 176.184 97.6718 170.265 97.6718V98.6718C176.699 98.6718 181.997 93.8119 182.689 87.5628L181.695 87.4527ZM182.765 91.186C182.765 89.9474 182.74 88.7145 182.691 87.4878L181.692 87.5277C181.741 88.7411 181.765 89.9607 181.765 91.186H182.765ZM181.826 81.7045H124.674V82.7045H181.826V81.7045ZM91.3186 0.87207C138.253 0.87207 176.837 36.5684 181.328 82.2534L182.324 82.1556C177.782 35.9625 138.771 -0.12793 91.3186 -0.12793V0.87207ZM1.30885 82.2534C5.80053 36.5684 44.3846 0.87207 91.3186 0.87207V-0.12793C43.8663 -0.12793 4.85527 35.9625 0.313648 82.1556L1.30885 82.2534ZM56.0084 81.7045H0.811249V82.7045H56.0084V81.7045ZM56.4965 82.313C60.0058 66.5312 73.8327 54.7621 90.341 54.7621V53.7621C73.3408 53.7621 59.1263 65.8798 55.5203 82.0959L56.4965 82.313ZM90.341 54.7621C106.849 54.7621 120.676 66.5312 124.186 82.313L125.162 82.0959C121.556 65.8798 107.341 53.7621 90.341 53.7621V54.7621Z" fill="black" fill-opacity="0.3" mask="url(#path-1-inside-1_132_5297)"/>
</svg>
