<svg width="30" height="30" viewBox="0 0 30 30" fill="none" xmlns="http://www.w3.org/2000/svg">
<rect width="30" height="30" rx="15" fill="#54473D"/>
<g clip-path="url(#clip0_135_7884)">
<path fill-rule="evenodd" clip-rule="evenodd" d="M18.8046 14.6926C18.8038 14.6915 18.8034 14.6901 18.8037 14.6888L19.6968 9.48071C19.6972 9.47832 19.6993 9.47656 19.7017 9.47656H19.9844C19.9866 9.47656 19.9885 9.47798 19.9892 9.48005L22.0014 15.8512C22.002 15.8532 22.0013 15.8554 21.9997 15.8567L20.5161 17.015C20.5138 17.0168 20.5106 17.0163 20.509 17.0141L18.8046 14.6926ZM7.97266 18.1451C7.97266 18.1473 7.97405 18.1492 7.9761 18.1499L11.0345 19.1499C11.0359 19.1504 11.0376 19.1501 11.0389 19.1493L17.8751 14.4297C17.8762 14.4289 17.877 14.4277 17.8772 14.4263L18.6103 9.50742C18.6107 9.5044 18.6084 9.50169 18.6053 9.50169H12.5502C12.5487 9.50169 12.5473 9.50235 12.5463 9.50349L7.97381 15.0195C7.97306 15.0204 7.97266 15.0215 7.97266 15.0227V18.1451ZM12.3089 19.4047L15.6501 20.4992C15.6516 20.4996 15.6533 20.4994 15.6546 20.4985L19.6325 17.6451C19.6347 17.6435 19.6353 17.6405 19.6338 17.6382L18.1426 15.4192C18.141 15.4168 18.1379 15.4162 18.1356 15.4178L12.3089 19.4047Z" fill="white"/>
</g>
<defs>
<clipPath id="clip0_135_7884">
<rect width="14" height="14" fill="white" transform="translate(8 8)"/>
</clipPath>
</defs>
</svg>
