<svg width="30" height="30" viewBox="0 0 30 30" fill="none" xmlns="http://www.w3.org/2000/svg">
<rect width="30" height="30" rx="15" fill="#5D666E"/>
<path fill-rule="evenodd" clip-rule="evenodd" d="M8.0014 14.9597C7.99954 14.9566 7.99953 14.9526 8.0014 14.9494L11.5217 8.93473C11.5236 8.93161 11.5269 8.92969 11.5305 8.92969H18.508C18.5117 8.92969 18.515 8.93162 18.5169 8.93477L21.9986 14.9495C22.0004 14.9526 22.0004 14.9565 21.9986 14.9597L18.5169 20.9676C18.515 20.9708 18.5117 20.9727 18.508 20.9727H11.5305C11.5269 20.9727 11.5236 20.9708 11.5217 20.9677L8.0014 14.9597ZM18.2434 14.9512C18.2434 16.7419 16.7918 18.1935 15.0011 18.1935C13.2104 18.1935 11.7588 16.7419 11.7588 14.9512C11.7588 13.1605 13.2104 11.7089 15.0011 11.7089C16.7918 11.7089 18.2434 13.1605 18.2434 14.9512Z" fill="white"/>
</svg>
