<svg width="30" height="30" viewBox="0 0 30 30" fill="none" xmlns="http://www.w3.org/2000/svg">
<rect width="30" height="30" rx="15" fill="#0804B4"/>
<g clip-path="url(#clip0_135_7934)">
<path fill-rule="evenodd" clip-rule="evenodd" d="M15.6754 14.9694C15.7703 14.9115 15.8508 14.7903 15.9157 14.6556C16.7701 15.0047 17.3705 15.8299 17.3705 16.7921C17.3705 18.0704 16.3109 19.1067 15.0039 19.1067C14.4673 19.1067 13.9725 18.9321 13.5756 18.6378C13.4453 18.5761 13.3382 18.5169 13.2505 18.4684C13.1146 18.3933 13.0254 18.3439 12.9696 18.3517C12.8063 18.3742 12.8537 18.5243 12.8968 18.6608C12.926 18.7534 12.9533 18.8397 12.9111 18.8753C12.867 18.9126 12.724 18.7763 12.557 18.6171C12.3296 18.4003 12.0576 18.1409 11.9293 18.2188C11.8279 18.2804 11.9263 18.4475 12.0469 18.6521L12.0558 18.6672C12.1067 18.7537 12.1657 18.8417 12.2196 18.9221C12.329 19.0853 12.4172 19.2169 12.3731 19.2392C12.3198 19.2661 11.9483 19.0153 11.6352 18.6672C11.5144 18.5329 11.3974 18.3873 11.2886 18.2519V18.2519C11.0505 17.9557 10.8521 17.7089 10.7408 17.7381C10.6069 17.7733 10.7082 18.0496 10.8571 18.3154C10.9267 18.4398 11.0086 18.5664 11.0795 18.676V18.676C11.1898 18.8465 11.2735 18.9758 11.2431 18.9918C11.2021 19.0132 10.8417 18.6617 10.5969 18.2188C10.4515 17.9558 10.3294 17.665 10.2306 17.4297C10.1234 17.1744 10.0436 16.9843 9.99098 16.9652C9.80831 16.8987 9.80831 17.2711 9.88158 17.8087C9.89113 17.8788 9.90536 17.9524 9.92289 18.0273C10.6334 20.3262 12.816 22 15.3983 22C18.557 22 21.1176 19.4956 21.1176 16.4063C21.1176 13.466 18.798 11.0556 15.8509 10.8299C15.8547 10.6914 15.927 10.4167 15.927 10.4167C15.927 10.4167 16.4472 9.15793 16.4747 8.88894C16.4765 8.87109 16.4787 8.85169 16.481 8.83103C16.5134 8.54039 16.5737 8 16.1088 8C15.8605 8 15.7451 8.1847 15.613 8.39593V8.39594C15.5624 8.47703 15.5092 8.56204 15.4452 8.642C14.9839 9.21799 14.2083 9.93727 13.7686 10.3205C12.8391 11.1304 11.9271 11.7961 11.3952 12.1843L11.3952 12.1843C11.1533 12.3609 10.99 12.4801 10.9395 12.5293C10.5587 12.9005 9.19333 15.3633 9.19333 15.3633C9.19333 15.3633 8.7518 16.1534 8.90874 16.3137C9.06568 16.4739 9.44414 16.4372 9.44414 16.4372C9.44414 16.4372 14.5285 15.2708 14.9836 15.1788C15.1062 15.154 15.1927 15.1397 15.2591 15.1288C15.4395 15.099 15.4718 15.0936 15.6754 14.9694ZM12.0806 13.4705C11.8077 13.7299 11.3551 14.3491 11.3551 14.3491C11.3551 14.3491 12.1963 14.4009 12.6596 13.9606C13.1229 13.5202 13.0168 12.7697 13.0168 12.7697C13.0168 12.7697 12.3535 13.2111 12.0806 13.4705Z" fill="white"/>
</g>
<defs>
<clipPath id="clip0_135_7934">
<rect width="14" height="14" fill="white" transform="translate(8 8)"/>
</clipPath>
</defs>
</svg>
