<svg width="19" height="20" viewBox="0 0 19 20" fill="none" xmlns="http://www.w3.org/2000/svg">
<path d="M18.0827 18.2977L18.0829 18.2987C18.128 18.4975 18.0832 18.7017 17.9566 18.8576C17.9566 18.8576 17.9565 18.8576 17.9565 18.8577L17.8789 18.7946L18.0827 18.2977ZM18.0827 18.2977L15.4618 7.24578M18.0827 18.2977L15.4618 7.24578M15.4618 7.24578C15.4618 7.24569 15.4617 7.24559 15.4617 7.2455M15.4618 7.24578L15.4617 7.2455M15.4617 7.2455C15.3836 6.90662 15.1081 6.7 14.7618 6.7H10.8942C10.403 6.7 10.0047 6.30175 10.0047 5.81049C10.0047 5.38973 10.322 5.02435 10.6969 4.75017C11.2424 4.35124 11.6238 3.68612 11.6238 3C11.6238 1.8873 10.6245 0.9 9.49996 0.9C8.37521 0.9 7.37616 1.88731 7.37616 3C7.37616 3.68613 7.75744 4.35128 8.30299 4.75021C8.67794 5.02438 8.9952 5.38974 8.9952 5.81051C8.9952 6.30176 8.59696 6.7 8.10571 6.7H4.23808C3.89241 6.7 3.61691 6.9062 3.53882 7.24548C3.53879 7.24559 3.53877 7.2457 3.53874 7.24581L15.4617 7.2455ZM8.38568 3C8.38568 2.39473 8.88441 1.9 9.49996 1.9C10.1155 1.9 10.6142 2.39473 10.6142 3C10.6142 3.60527 10.1155 4.1 9.49996 4.1C8.88442 4.1 8.38568 3.60508 8.38568 3ZM3.08806 18.1C2.50318 18.1 2.07367 17.5509 2.21457 16.9832L4.34911 8.3832C4.44873 7.98183 4.80905 7.7 5.2226 7.7H13.7773C14.1909 7.7 14.5512 7.98183 14.6508 8.3832L16.7854 16.9832C16.9263 17.5509 16.4967 18.1 15.9119 18.1H3.08806Z" fill="#555252" stroke="#555252" stroke-width="0.2" stroke-linejoin="round"/>
</svg>
