<svg width="41" height="42" viewBox="0 0 41 42" fill="none" xmlns="http://www.w3.org/2000/svg">
<g filter="url(#filter0_d_135_11915)">
<path d="M5.66463 16.8649C5.66385 19.4844 6.35136 22.0422 7.65878 24.2967L5.53955 32L13.4582 29.933C15.6398 31.1167 18.0961 31.7414 20.596 31.7423H20.6027C28.8349 31.7423 35.5362 25.0732 35.5395 16.8765C35.5412 12.9045 33.9888 9.16965 31.1684 6.35982C28.3485 3.54999 24.598 2.00177 20.6021 2C12.3689 2 5.66797 8.66841 5.66463 16.8649Z" fill="url(#paint0_linear_135_11915)"/>
<path d="M4.55218 33.0484L4.46837 33.0703L4.49134 32.9867L6.74621 24.7904C5.35443 22.3824 4.6223 19.6524 4.62334 16.8559C4.6269 8.08524 11.7966 0.950001 20.6066 0.950001C24.8817 0.951946 28.8947 2.60845 31.9125 5.61491C34.9299 8.62148 36.591 12.6182 36.5896 16.8688C36.5858 25.6391 29.4151 32.7755 20.6066 32.7755H20.5997C17.9315 32.7745 15.3096 32.1099 12.9795 30.8486L4.55218 33.0484ZM9.7455 24.3427L9.75731 24.3613L9.75145 24.3826L8.43624 29.1625L13.3647 27.8762L13.3848 27.8709L13.4027 27.8815L13.8865 28.1669L13.8865 28.1669C15.9116 29.3633 18.2336 29.9962 20.6015 29.9975H20.6066C27.8782 29.9975 33.7963 24.1069 33.7994 16.8677C33.8004 13.3592 32.4298 10.0605 29.9389 7.5789C27.4477 5.09716 24.1358 3.72972 20.6116 3.7283C13.3342 3.7283 7.41632 9.61802 7.41353 16.857C7.41239 19.3378 8.10959 21.7537 9.43022 23.8442L9.7455 24.3427Z" fill="white" stroke="#BDBDBD" stroke-width="0.1"/>
<path fill-rule="evenodd" clip-rule="evenodd" d="M16.6498 9.68915C16.3518 9.03388 16.0382 9.02068 15.7547 9.00918C15.5229 8.99939 15.2574 9.00001 14.9924 9.00001C14.7273 9.00001 14.2963 9.09855 13.9319 9.49234C13.5672 9.88613 12.5396 10.8381 12.5396 12.7742C12.5396 14.7106 13.965 16.5814 14.1637 16.8442C14.3626 17.1066 16.9155 21.2067 20.9584 22.7841C24.3184 24.095 25.0021 23.8343 25.7315 23.7687C26.4608 23.7031 28.0848 22.8169 28.4162 21.898C28.7478 20.9792 28.7478 20.1917 28.6483 20.027C28.5488 19.863 28.2837 19.7647 27.8859 19.5678C27.488 19.371 25.5325 18.4189 25.1679 18.2877C24.8032 18.1565 24.538 18.091 24.2728 18.4849C24.0076 18.8785 23.2459 19.7647 23.0137 20.0271C22.7817 20.2901 22.5497 20.3229 22.1518 20.126C21.754 19.9287 20.4729 19.5135 18.9532 18.173C17.7707 17.13 16.9725 15.8418 16.7403 15.4479C16.5083 15.0543 16.7155 14.8411 16.915 14.6449C17.0936 14.4686 17.3129 14.1856 17.5117 13.9558C17.7102 13.726 17.7766 13.562 17.9091 13.2996C18.0417 13.0368 17.9754 12.807 17.876 12.6102C17.7766 12.4134 17.0035 10.4672 16.6498 9.68915Z" fill="white"/>
</g>
<defs>
<filter id="filter0_d_135_11915" x="0.396973" y="0.899994" width="40.2427" height="40.2405" filterUnits="userSpaceOnUse" color-interpolation-filters="sRGB">
<feFlood flood-opacity="0" result="BackgroundImageFix"/>
<feColorMatrix in="SourceAlpha" type="matrix" values="0 0 0 0 0 0 0 0 0 0 0 0 0 0 0 0 0 0 127 0" result="hardAlpha"/>
<feOffset dy="4"/>
<feGaussianBlur stdDeviation="2"/>
<feComposite in2="hardAlpha" operator="out"/>
<feColorMatrix type="matrix" values="0 0 0 0 0 0 0 0 0 0 0 0 0 0 0 0 0 0 0.25 0"/>
<feBlend mode="normal" in2="BackgroundImageFix" result="effect1_dropShadow_135_11915"/>
<feBlend mode="normal" in="SourceGraphic" in2="effect1_dropShadow_135_11915" result="shape"/>
</filter>
<linearGradient id="paint0_linear_135_11915" x1="20.5395" y1="32" x2="20.5395" y2="1.99997" gradientUnits="userSpaceOnUse">
<stop stop-color="#20B038"/>
<stop offset="1" stop-color="#60D66A"/>
</linearGradient>
</defs>
</svg>
